<svg xmlns="http://www.w3.org/2000/svg" width="1280" height="760" viewBox="0 0 1280 760" role="img" aria-label="Finance requirements generator intake preview">
  <rect width="1280" height="760" fill="#f8fafc"/>
  <rect x="52" y="42" width="1176" height="676" rx="8" fill="#ffffff" stroke="#d1d5db"/>
  <text x="86" y="98" font-family="Arial, sans-serif" font-size="34" font-weight="700" fill="#111827">Finance Systems Requirements Pack Generator</text>
  <text x="86" y="134" font-family="Arial, sans-serif" font-size="18" fill="#475569">Synthetic BRD, controls, and UAT accelerator for ERP finance transformation.</text>
  <rect x="86" y="176" width="334" height="46" rx="6" fill="#eff6ff" stroke="#bfdbfe"/>
  <text x="106" y="205" font-family="Arial, sans-serif" font-size="17" font-weight="700" fill="#1d4ed8">Accounts Payable</text>
  <rect x="86" y="256" width="520" height="68" rx="6" fill="#f9fafb" stroke="#d1d5db"/>
  <text x="108" y="284" font-family="Arial, sans-serif" font-size="15" fill="#374151">Synthetic company name</text>
  <text x="108" y="308" font-family="Arial, sans-serif" font-size="20" font-weight="700" fill="#111827">Northstar Trading Ltd</text>
  <rect x="86" y="346" width="520" height="68" rx="6" fill="#f9fafb" stroke="#d1d5db"/>
  <text x="108" y="374" font-family="Arial, sans-serif" font-size="15" fill="#374151">ERP/current platform</text>
  <text x="108" y="398" font-family="Arial, sans-serif" font-size="20" font-weight="700" fill="#111827">Odoo Finance</text>
  <rect x="674" y="256" width="470" height="158" rx="6" fill="#f9fafb" stroke="#d1d5db"/>
  <text x="696" y="286" font-family="Arial, sans-serif" font-size="17" font-weight="700" fill="#111827">Pain points</text>
  <text x="696" y="324" font-family="Arial, sans-serif" font-size="18" fill="#111827">- Duplicate invoices</text>
  <text x="696" y="360" font-family="Arial, sans-serif" font-size="18" fill="#111827">- Manual approval chasing</text>
  <text x="696" y="396" font-family="Arial, sans-serif" font-size="18" fill="#111827">- Weak supplier master controls</text>
  <rect x="86" y="498" width="260" height="48" rx="6" fill="#2563eb"/>
  <text x="118" y="529" font-family="Arial, sans-serif" font-size="18" font-weight="700" fill="#ffffff">Generate requirements pack</text>
  <rect x="86" y="602" width="1058" height="64" rx="6" fill="#ecfdf5" stroke="#bbf7d0"/>
  <text x="108" y="642" font-family="Arial, sans-serif" font-size="19" font-weight="700" fill="#166534">Preview includes executive summary, requirements, controls, audit trail, user stories, UAT, and export buttons.</text>
</svg>
